<svg xmlns="http://www.w3.org/2000/svg" width="1120" height="360" viewBox="0 0 1120 360" role="img" aria-labelledby="title desc">
  <title id="title">runx business operator graph</title>
  <desc id="desc">A clean graph showing a business goal entering the runx business-ops skill, fanning into governed lanes, and resolving into receipt or approval outcomes.</desc>
  <defs>
    <marker id="arrow" markerWidth="9" markerHeight="9" refX="8" refY="4.5" orient="auto">
      <path d="M1 1 L8 4.5 L1 8 Z" fill="#87818d"/>
    </marker>
    <style>
      .bg { fill: #fbfaf7; }
      .node { fill: #fffdf9; stroke: #d8d2c8; stroke-width: 1.25; }
      .operator { fill: #fff2f8; stroke: #ff2e88; stroke-width: 1.6; }
      .lane { fill: #fffdf9; stroke: #d8d2c8; stroke-width: 1.15; }
      .receipt { fill: #f8fbff; stroke: #a7cce8; stroke-width: 1.25; }
      .approval { fill: #fff3f8; stroke: #ff9bc7; stroke-width: 1.25; }
      .line { fill: none; stroke: #87818d; stroke-width: 1.45; marker-end: url(#arrow); }
      .rail { fill: none; stroke: #c8c1cb; stroke-width: 1.45; }
      .accent { fill: #ff2e88; }
      .ink { fill: #17151c; }
      .muted { fill: #746d7a; }
      .faint { fill: #9b95a0; }
      .h { font: 740 16px Inter, ui-sans-serif, system-ui, -apple-system, BlinkMacSystemFont, "Segoe UI", sans-serif; }
      .body { font: 520 12.5px Inter, ui-sans-serif, system-ui, -apple-system, BlinkMacSystemFont, "Segoe UI", sans-serif; }
      .label { font: 680 10px Inter, ui-sans-serif, system-ui, -apple-system, BlinkMacSystemFont, "Segoe UI", sans-serif; letter-spacing: 0.055em; text-transform: uppercase; }
      @media (prefers-color-scheme: dark) {
        .bg { fill: #09090e; }
        .node, .lane { fill: #111119; stroke: #34303b; }
        .operator { fill: #1c1119; stroke: #ff2e88; }
        .receipt { fill: #0f151d; stroke: #315b78; }
        .approval { fill: #1c1119; stroke: #743956; }
        .line { stroke: #aaa4b1; }
        .rail { stroke: #4a4350; }
        .ink { fill: #f5f1ea; }
        .muted { fill: #bbb3bf; }
        .faint { fill: #89828f; }
      }
    </style>
  </defs>

  <rect class="bg" width="1120" height="360" rx="18"/>

  <rect class="node" x="72" y="140" width="180" height="80" rx="14"/>
  <text class="label faint" x="100" y="172">goal</text>
  <text class="h ink" x="100" y="198">prepare API v2</text>

  <path class="line" d="M252 180 H328"/>

  <rect class="operator" x="328" y="120" width="196" height="120" rx="16"/>
  <circle class="accent" cx="360" cy="154" r="5"/>
  <text class="label faint" x="378" y="158">runx skill</text>
  <text class="h ink" x="360" y="188">business-ops</text>
  <text class="body muted" x="360" y="212">intake, plan, route, gate</text>

  <path class="line" d="M524 180 H578"/>
  <path class="rail" d="M578 75 V285"/>

  <path class="line" d="M578 75 H620"/>
  <path class="line" d="M578 117 H620"/>
  <path class="line" d="M578 159 H620"/>
  <path class="line" d="M578 201 H620"/>
  <path class="line" d="M578 243 H620"/>
  <path class="line" d="M578 285 H620"/>

  <rect class="lane" x="620" y="58" width="236" height="34" rx="17"/>
  <text class="body ink" x="646" y="80">docs from evidence</text>

  <rect class="lane" x="620" y="100" width="236" height="34" rx="17"/>
  <text class="body ink" x="646" y="122">release readiness</text>

  <rect class="lane" x="620" y="142" width="236" height="34" rx="17"/>
  <text class="body ink" x="646" y="164">receipt audit</text>

  <rect class="lane" x="620" y="184" width="236" height="34" rx="17"/>
  <text class="body ink" x="646" y="206">issue-to-PR</text>

  <rect class="lane" x="620" y="226" width="236" height="34" rx="17"/>
  <text class="body ink" x="646" y="248">customer comms</text>

  <rect class="lane" x="620" y="268" width="236" height="34" rx="17"/>
  <text class="body ink" x="646" y="290">spend review</text>

  <path class="line" d="M856 117 H922"/>
  <path class="line" d="M856 243 H922"/>

  <rect class="receipt" x="922" y="78" width="136" height="78" rx="14"/>
  <text class="label faint" x="950" y="110">receipt</text>
  <text class="body ink" x="950" y="134">prove the run</text>

  <rect class="approval" x="922" y="204" width="136" height="78" rx="14"/>
  <text class="label faint" x="950" y="236">approval</text>
  <text class="body ink" x="950" y="260">approve first</text>
</svg>
