<svg xmlns="http://www.w3.org/2000/svg" class="rx-light" width="1120" height="470" viewBox="0 0 1120 470" role="img" aria-labelledby="title desc">
  <title id="title">runx governed skill chain</title>
  <desc id="desc">One goal enters a governed chain: scout enriches the account, triage routes it, ghostwrite drafts in two passes, the send and warroom lanes hold at approval gates, ledger appends the record, and everything converges into one sealed receipt that feeds the next run.</desc>
  <defs>
    <style>
      .rx-light .ink { fill: #16121e; }
      .rx-light .muted { fill: #585165; }
      .rx-light .faint { fill: #8a8394; }
      .rx-light .amber { fill: #b26a05; }
      .rx-light .seal-text { fill: #2563c4; }
      .rx-light .name { font: 700 13.5px Inter, ui-sans-serif, system-ui, sans-serif; fill: #16121e; }
      .rx-light .mono { font: 600 12px ui-monospace, SFMono-Regular, Menlo, Consolas, monospace; }
      .rx-light .small { font: 520 11px Inter, ui-sans-serif, system-ui, sans-serif; }
      .rx-light .seal-ring { animation: rx-light-turn 14s linear infinite; transform-origin: 990px 225px; }
      .rx-light .replay { stroke-dasharray: 2 9; animation: rx-light-flow 1.4s linear infinite; }
      @keyframes rx-light-turn { to { transform: rotate(360deg); } }
      @keyframes rx-light-flow { to { stroke-dashoffset: -11; } }
      @media (prefers-reduced-motion: reduce) { .rx-light * { animation: none !important; } }
    </style>
  </defs>

  <rect width="1120" height="470" rx="18" fill="#fdfcfa" stroke="#e6e1d8" stroke-width="1.5"/>

  <text class="mono ink" x="64" y="200">$ runx skill business-ops</text>
  <text class="mono muted" x="64" y="224">signal: acme.com signed up 40 seats</text>
  <text class="mono amber" x="64" y="248">approved · actor=kam</text>
  <circle cx="344" cy="225" r="5.5" fill="#e0186f"/>


  <path d="M344 225 C 397.9 225, 388.1 225, 442 225" stroke="#e0186f" stroke-opacity="0.05" stroke-width="7" fill="none"/>
  <path d="M344 225 C 397.9 225, 388.1 225, 442 225" stroke="#e0186f" stroke-opacity="0.92" stroke-width="2.4" fill="none" stroke-linecap="round"/>

  <path d="M442 225 C 528.9 225, 513.1 128, 600 128" stroke="#0f9d8f" stroke-opacity="0.05" stroke-width="7" fill="none"/>
  <path d="M442 225 C 528.9 225, 513.1 128, 600 128" stroke="#0f9d8f" stroke-opacity="0.92" stroke-width="2" fill="none" stroke-linecap="round"/>

  <path d="M442 225 C 528.9 225, 513.1 322, 600 322" stroke="#7a4fd6" stroke-opacity="0.05" stroke-width="7" fill="none"/>
  <path d="M442 225 C 528.9 225, 513.1 322, 600 322" stroke="#7a4fd6" stroke-opacity="0.92" stroke-width="2" fill="none" stroke-linecap="round"/>

  <path d="M600 128 C 707.8 128, 688.2 86, 796 86" stroke="#c47d10" stroke-opacity="0.05" stroke-width="7" fill="none"/>
  <path d="M600 128 C 707.8 128, 688.2 86, 796 86" stroke="#c47d10" stroke-opacity="0.92" stroke-width="2" fill="none" stroke-linecap="round"/>

  <path d="M600 128 C 716.6 128, 695.4 225, 812 225" stroke="#2f9e44" stroke-opacity="0.05" stroke-width="7" fill="none"/>
  <path d="M600 128 C 716.6 128, 695.4 225, 812 225" stroke="#2f9e44" stroke-opacity="0.92" stroke-width="2" fill="none" stroke-linecap="round"/>

  <path d="M600 322 C 707.8 322, 688.2 364, 796 364" stroke="#e0186f" stroke-opacity="0.05" stroke-width="7" fill="none"/>
  <path d="M600 322 C 707.8 322, 688.2 364, 796 364" stroke="#e0186f" stroke-opacity="0.92" stroke-width="2" fill="none" stroke-linecap="round"/>

  <path d="M796 86 C 902.7 86, 883.3 225, 990 225" stroke="#c47d10" stroke-opacity="0.05" stroke-width="7" fill="none"/>
  <path d="M796 86 C 902.7 86, 883.3 225, 990 225" stroke="#c47d10" stroke-opacity="0.92" stroke-width="2" fill="none" stroke-dasharray="5 6" stroke-linecap="round"/>

  <path d="M796 364 C 902.7 364, 883.3 225, 990 225" stroke="#e0186f" stroke-opacity="0.05" stroke-width="7" fill="none"/>
  <path d="M796 364 C 902.7 364, 883.3 225, 990 225" stroke="#e0186f" stroke-opacity="0.92" stroke-width="2" fill="none" stroke-dasharray="5 6" stroke-linecap="round"/>

  <path d="M812 225 C 909.9 225, 892.1 225, 990 225" stroke="#2f9e44" stroke-opacity="0.05" stroke-width="7" fill="none"/>
  <path d="M812 225 C 909.9 225, 892.1 225, 990 225" stroke="#2f9e44" stroke-opacity="0.92" stroke-width="2" fill="none" stroke-linecap="round"/>

  <circle cx="442" cy="225" r="9.5" fill="#fdfcfa" stroke="#e0186f" stroke-width="2.4"/>
  <circle cx="442" cy="225" r="3.4" fill="#e0186f"/>
  
  <text class="name" x="436" y="253" text-anchor="start">scout</text>
  <text class="mono faint" x="436" y="270" text-anchor="start">account enriched</text>

  <circle cx="600" cy="128" r="5.5" fill="#fdfcfa" stroke="#0f9d8f" stroke-width="2.2"/>
  
  <text class="name" x="594" y="94" text-anchor="start">triage</text>
  <text class="mono faint" x="594" y="111" text-anchor="start">routed · p1 to gtm</text>

  <circle cx="600" cy="322" r="5.5" fill="#fdfcfa" stroke="#7a4fd6" stroke-width="2.2"/>
  <path d="M593 317 C 566 288, 630 282, 607 316" stroke="#7a4fd6" stroke-opacity=".55" stroke-width="1.4" fill="none" stroke-dasharray="3 5"/>
  <circle r="2.2" fill="#7a4fd6"><animateMotion dur="3.2s" repeatCount="indefinite" path="M593 317 C 566 288, 630 282, 607 316"/></circle>
  <text class="name" x="594" y="350" text-anchor="start">ghostwrite</text>
  <text class="mono faint" x="594" y="367" text-anchor="start">draft · 2 passes</text>

  <path d="M796 77.5 L804.5 86 L796 94.5 L787.5 86 Z" fill="#fdfcfa" stroke="#c47d10" stroke-width="2.2"/>
  
  <text class="name" x="790" y="52" text-anchor="start">warroom</text>
  <text class="mono amber" x="790" y="69" text-anchor="start">held · needs approval</text>

  <circle cx="812" cy="225" r="5.5" fill="#fdfcfa" stroke="#2f9e44" stroke-width="2.2"/>
  
  <text class="name" x="806" y="191" text-anchor="start">ledger</text>
  <text class="mono faint" x="806" y="208" text-anchor="start">run appended to record</text>

  <path d="M796 355.5 L804.5 364 L796 372.5 L787.5 364 Z" fill="#fdfcfa" stroke="#c47d10" stroke-width="2.2"/>
  
  <text class="name" x="790" y="392" text-anchor="start">send</text>
  <text class="mono amber" x="790" y="409" text-anchor="start">held · needs approval</text>

  <circle r="3.1" fill="#c47d10">
    <animateMotion dur="7s" begin="0.0s" repeatCount="indefinite" path="M344 225 C 397.9 225, 388.1 225, 442 225 C 528.9 225, 513.1 128, 600 128 C 707.8 128, 688.2 86, 796 86 C 902.7 86, 883.3 225, 990 225"/>
  </circle>

  <circle r="3.1" fill="#e0186f">
    <animateMotion dur="7s" begin="2.2s" repeatCount="indefinite" path="M344 225 C 397.9 225, 388.1 225, 442 225 C 528.9 225, 513.1 322, 600 322 C 707.8 322, 688.2 364, 796 364 C 902.7 364, 883.3 225, 990 225"/>
  </circle>

  <circle r="3.1" fill="#2f9e44">
    <animateMotion dur="7s" begin="4.4s" repeatCount="indefinite" path="M344 225 C 397.9 225, 388.1 225, 442 225 C 528.9 225, 513.1 128, 600 128 C 716.6 128, 695.4 225, 812 225 C 909.9 225, 892.1 225, 990 225"/>
  </circle>

  <g class="seal-ring">
    <circle cx="990" cy="225" r="24" fill="none" stroke="#2563c4" stroke-width="1.6" stroke-dasharray="4 7"/>
  </g>
  <circle cx="990" cy="225" r="15" fill="none" stroke="#2563c4" stroke-opacity=".55" stroke-width="1.2"/>
  <circle cx="990" cy="225" r="7" fill="#2563c4"/>
  <text class="name" x="990" y="267" text-anchor="middle">sealed</text>
  <text class="mono seal-text" x="990" y="285" text-anchor="middle">$ runx verify → ok</text>

  <path class="replay" d="M990 287 C 930 460, 434 458, 344 241" stroke="#2563c4" stroke-opacity=".45" stroke-width="1.4" fill="none"/>
  <circle r="2.6" fill="#2563c4" opacity=".8">
    <animateMotion dur="5s" repeatCount="indefinite" path="M990 287 C 930 460, 434 458, 344 241"/>
  </circle>
  <path id="rx-light-replay-guide" d="M344 241 C 434 458, 930 460, 990 287" fill="none" stroke="none"/>
  <text class="small faint" dy="-6"><textPath href="#rx-light-replay-guide" startOffset="42%">receipts feed the next run</textPath></text>
</svg>
